<svg width="960" height="260" viewBox="0 0 960 260" fill="none" xmlns="http://www.w3.org/2000/svg">
  <defs>
    <linearGradient id="mono-stroke" x1="44" y1="52" x2="220" y2="212" gradientUnits="userSpaceOnUse">
      <stop stop-color="#281C59"/>
      <stop offset="1" stop-color="#4E8D9C"/>
    </linearGradient>
  </defs>
  <rect x="30" y="30" width="200" height="200" rx="48" fill="#281C59"/>
  <path d="M72 76H132" stroke="#EDF7BD" stroke-width="10" stroke-linecap="round"/>
  <path d="M102 76V186" stroke="#EDF7BD" stroke-width="10" stroke-linecap="round"/>
  <path d="M160 76H198" stroke="#EDF7BD" stroke-width="10" stroke-linecap="round"/>
  <path d="M179 76V186" stroke="#EDF7BD" stroke-width="10" stroke-linecap="round"/>
  <path d="M146 116C146 93.9086 163.909 76 186 76C198.79 76 210.178 82.0045 217.5 91.3556" stroke="url(#mono-stroke)" stroke-width="6.5" stroke-linecap="round"/>
  <path d="M216 128H182" stroke="url(#mono-stroke)" stroke-width="6.5" stroke-linecap="round"/>
  <path d="M72 60L102 76L144 60L186 76L216 60" stroke="url(#mono-stroke)" stroke-width="5.5" stroke-linecap="round"/>
  <circle cx="72" cy="60" r="7" fill="#85C79A"/>
  <circle cx="144" cy="60" r="7" fill="#4E8D9C"/>
  <circle cx="216" cy="60" r="7" fill="#85C79A"/>
  <text x="292" y="112" fill="#281C59" font-size="74" font-weight="700" font-family="Arial, sans-serif" letter-spacing="-1">TGTC</text>
  <text x="294" y="154" fill="#4E8D9C" font-size="24" font-weight="700" font-family="Arial, sans-serif" letter-spacing="3.2">NETSUITE MODERNIZATION</text>
  <text x="294" y="190" fill="#5D637A" font-size="18" font-weight="500" font-family="Arial, sans-serif" letter-spacing="1.2">SERIOUS ERP DELIVERY WITH MODERN INFRASTRUCTURE</text>
</svg>
