<svg width="960" height="260" viewBox="0 0 960 260" fill="none" xmlns="http://www.w3.org/2000/svg">
  <defs>
    <linearGradient id="signal-panel" x1="28" y1="20" x2="220" y2="220" gradientUnits="userSpaceOnUse">
      <stop stop-color="#281C59"/>
      <stop offset="1" stop-color="#3F317D"/>
    </linearGradient>
    <linearGradient id="signal-line" x1="54" y1="54" x2="188" y2="188" gradientUnits="userSpaceOnUse">
      <stop stop-color="#85C79A"/>
      <stop offset="1" stop-color="#4E8D9C"/>
    </linearGradient>
  </defs>
  <rect x="24" y="24" width="212" height="212" rx="44" fill="url(#signal-panel)"/>
  <path d="M72 74H124" stroke="#EDF7BD" stroke-width="10" stroke-linecap="round"/>
  <path d="M98 74V182" stroke="#EDF7BD" stroke-width="10" stroke-linecap="round"/>
  <path d="M182 74C155.49 74 134 95.49 134 122C134 148.51 155.49 170 182 170C197.967 170 212.111 162.196 220.841 150.182" stroke="#EDF7BD" stroke-width="10" stroke-linecap="round"/>
  <path d="M208 132H182" stroke="#EDF7BD" stroke-width="10" stroke-linecap="round"/>
  <path d="M62 58L98 74L136 60L182 74L210 58" stroke="url(#signal-line)" stroke-width="6.5" stroke-linecap="round"/>
  <path d="M98 74V182L138 202L194 166L210 110" stroke="url(#signal-line)" stroke-width="6.5" stroke-linecap="round"/>
  <circle cx="62" cy="58" r="8" fill="#85C79A"/>
  <circle cx="136" cy="60" r="8" fill="#4E8D9C"/>
  <circle cx="210" cy="58" r="8" fill="#85C79A"/>
  <circle cx="138" cy="202" r="8" fill="#4E8D9C"/>
  <circle cx="194" cy="166" r="8" fill="#85C79A"/>
  <circle cx="210" cy="110" r="8" fill="#4E8D9C"/>
  <text x="292" y="116" fill="#281C59" font-size="76" font-weight="700" font-family="Arial, sans-serif" letter-spacing="-1">TGTC</text>
  <text x="294" y="156" fill="#4E8D9C" font-size="24" font-weight="700" font-family="Arial, sans-serif" letter-spacing="3.4">TG TECH CONSULTING</text>
  <text x="294" y="192" fill="#5D637A" font-size="18" font-weight="500" font-family="Arial, sans-serif" letter-spacing="1.4">NETSUITE  AI  AUTOMATION  INTEGRATIONS</text>
</svg>
